<?xml version="1.0" standalone="no"?>
<!DOCTYPE svg PUBLIC "-//W3C//DTD SVG 20010904//EN"
 "http://www.w3.org/TR/2001/REC-SVG-20010904/DTD/svg10.dtd">
<svg version="1.0" xmlns="http://www.w3.org/2000/svg"
 width="700.000000pt" height="700.000000pt" viewBox="0 0 700.000000 700.000000"
 preserveAspectRatio="xMidYMid meet">
<metadata>
Created by potrace 1.14, written by Peter Selinger 2001-2017
</metadata>
<g transform="translate(0.000000,700.000000) scale(0.100000,-0.100000)"
fill="#000000" stroke="none">
<path d="M4022 5759 c-39 -8 -68 -32 -90 -74 -20 -39 -24 -328 -6 -382 23 -66
71 -97 146 -95 38 1 82 29 104 66 15 26 18 55 19 196 1 91 -2 179 -7 195 -17
65 -94 109 -166 94z"/>
<path d="M2926 5305 c-68 -24 -98 -69 -94 -142 2 -42 8 -53 62 -111 74 -78
178 -180 206 -199 28 -20 102 -18 134 2 64 43 90 132 53 189 -15 22 -169 180
-229 234 -35 32 -87 42 -132 27z"/>
<path d="M5120 5312 c-34 -6 -52 -19 -164 -130 -124 -120 -146 -152 -146 -206
0 -101 96 -164 193 -127 40 15 266 248 275 284 27 98 -58 195 -158 179z"/>
<path d="M3998 4925 c-2 -2 -30 -6 -63 -10 -169 -19 -364 -121 -488 -255 l-57
-61 -57 15 c-404 103 -854 -51 -1132 -389 -116 -140 -214 -373 -236 -560 -8
-66 -8 -245 0 -285 3 -14 10 -50 15 -82 11 -57 44 -159 75 -233 18 -41 94
-176 104 -185 3 -3 18 -21 32 -40 46 -61 152 -165 218 -213 134 -99 277 -163
446 -199 96 -20 127 -21 750 -21 358 -1 673 2 700 6 270 34 517 210 639 454
78 156 104 307 83 488 -14 129 -73 277 -153 386 l-33 45 19 61 c60 193 40 420
-52 608 -118 240 -341 408 -601 455 -55 11 -203 20 -209 15z m157 -290 c266
-42 471 -300 458 -574 -2 -41 -5 -76 -7 -79 -2 -2 -26 8 -53 21 -58 30 -166
64 -231 73 -57 9 -184 9 -232 0 -35 -6 -36 -5 -85 71 -60 93 -185 222 -278
287 l-67 48 47 39 c56 46 126 81 203 103 87 24 147 26 245 11z m-934 -284
c218 -36 421 -169 549 -359 43 -64 110 -204 110 -232 1 -39 15 -41 81 -11 176
83 371 71 534 -32 200 -126 298 -370 244 -602 -47 -201 -213 -366 -419 -415
-42 -10 -196 -14 -655 -14 -330 -1 -635 2 -678 6 -301 29 -571 231 -686 515
-89 218 -84 458 13 668 46 100 87 157 170 241 58 57 184 154 201 154 3 0 28
11 57 24 65 30 147 53 213 62 28 3 51 7 52 8 6 5 158 -3 214 -13z"/>
<path d="M5279 4217 c-67 -17 -110 -85 -101 -160 4 -37 71 -103 108 -108 16
-3 99 -4 184 -4 127 1 162 4 192 19 40 19 77 78 72 118 -1 13 -3 31 -3 40 -1
23 -49 78 -80 90 -32 13 -325 17 -372 5z"/>
</g>
</svg>
